<svg xmlns="http://www.w3.org/2000/svg" xmlns:xlink="http://www.w3.org/1999/xlink" viewBox="0 0 240 234">
  <defs>
    <style>
      .a {
        isolation: isolate;
      }

      .b {
        fill: url(#img1);
      }
    </style>
    <pattern id="img1" patternUnits="userSpaceOnUse" width="240" height="234">
      <image xlink:href="adobe-gradient.png" x="0" y="0" width="240" height="234" />
    </pattern>
  </defs>
  <image class="a" width="240" height="234" />
  <path class="b"
    d="M192.6,70.5a66.65,66.65,0,0,0-49.2-21.3c-18.2,0-36.7,7.8-48.6,20.4-2.2-.2-4.4-.4-6.5-.4-35.7,0-57.8,30-57.8,57.8a59.7,59.7,0,0,0,16.2,40.4,57,57,0,0,0,41.6,18h55.1c37.4,0,67.8-30.7,67.8-68.3A69.59,69.59,0,0,0,192.6,70.5ZM87.2,175.6a48,48,0,1,1,31.6-83.8l.2.2,19.9,20.4a8.56,8.56,0,1,1-12.3,11.9L107,104.1a30.55,30.55,0,0,0-50.5,23.1c0,16.8,14.3,31,31.2,31h3.9v.1c5.6,7.8,21.3,17.3,21.3,17.3Zm98.2-17.2a57.14,57.14,0,0,1-41,17.6c-14.7,0-29.7-6.6-41.2-18L77,131.6a8.63,8.63,0,0,1,.1-12.1,8.57,8.57,0,0,1,12.1.2l26.1,26.1c8.3,8.3,18.9,13,29.1,13a39.43,39.43,0,0,0,28.8-12.5,42.29,42.29,0,0,0,12-29.5,41.12,41.12,0,0,0-41-41c-8.6,0-15.7,1.7-22.7,6.6-.1-.1-2-1.3-4.1-2.6-1.3-.8-2.7-1.6-3.9-2.2s-4.8-2.4-6.9-3.3c-.5-.2-1.2-.5-1.5-.6h.1c10.8-10.1,24.2-15,39-15a58.15,58.15,0,0,1,58.1,58.1A59.38,59.38,0,0,1,185.4,158.4Z" />
</svg>