<?xml version="1.0" encoding="utf-8"?>
<!-- Generator: Adobe Illustrator 24.2.0, SVG Export Plug-In . SVG Version: 6.00 Build 0)  -->
<svg version="1.1" id="Layer_1" xmlns="http://www.w3.org/2000/svg" xmlns:xlink="http://www.w3.org/1999/xlink" x="0px" y="0px"
	 viewBox="0 0 800 800" style="enable-background:new 0 0 800 800;" xml:space="preserve">
<style type="text/css">
	.st0{fill:none;}
	.st1{fill:#5D87A1;}
	.st2{fill:#F8981D;}
</style>
<path class="st0" d="M0,122.8h800v554.5H0V122.8z"/>
<g>
	<path class="st1" d="M195.9,619.5h-30.3c-1.1-51.2-4-99.4-8.9-144.5h-0.3l-46.2,144.5H87.1L41.2,475h-0.3
		c-3.4,43.3-5.6,91.5-6.4,144.5H6.9c1.8-64.4,6.3-124.9,13.4-181.3h37.6l43.8,133.2h0.3l44-133.2h36
		C189.8,504.3,194.5,564.7,195.9,619.5 M327.5,485.7c-12.4,67-28.7,115.7-48.9,146.1c-15.8,23.4-33,35.1-51.8,35.1
		c-5,0-11.2-1.5-18.5-4.5v-16.2c3.6,0.5,7.8,0.8,12.6,0.8c8.8,0,15.8-2.4,21.2-7.3c6.4-5.9,9.7-12.5,9.7-19.9c0-5-2.5-15.3-7.5-30.9
		l-33.3-103.4h29.8l23.9,77.3c5.4,17.6,7.6,29.8,6.7,36.8c13.1-34.9,22.2-73,27.4-114.1L327.5,485.7L327.5,485.7L327.5,485.7z"/>
	<path class="st2" d="M731.3,619.5h-86.2V438.2h29v159h57.2V619.5z M622.6,623.9l-33.3-16.4c3-2.4,5.8-5.1,8.3-8.1
		c14.2-16.6,21.2-41.2,21.2-73.8c0-60-23.5-90-70.6-90c-23.1,0-41.1,7.6-54,22.8C480.1,475,473,499.5,473,531.9
		c0,31.9,6.3,55.2,18.8,70.1c11.5,13.4,28.7,20.2,51.8,20.2c8.6,0,16.5-1.1,23.7-3.2l43.4,25.3L622.6,623.9z M514.6,583.2
		c-7.3-11.8-11-30.8-11-56.9c0-45.6,13.9-68.5,41.6-68.5c14.5,0,25.1,5.5,31.9,16.4c7.3,11.8,11,30.6,11,56.4c0,46-13.9,69-41.6,69
		C532.1,599.6,521.4,594.2,514.6,583.2 M460.4,569.2c0,15.4-5.6,28-16.9,37.9c-11.3,9.8-26.4,14.8-45.4,14.8
		c-17.7,0-34.9-5.7-51.6-16.9l7.8-15.6c14.3,7.2,27.3,10.7,38.9,10.7c10.9,0,19.5-2.4,25.6-7.2c6.2-4.8,9.9-11.6,9.9-20.1
		c0-10.8-7.5-20-21.3-27.7c-12.7-7-38.1-21.6-38.1-21.6c-13.8-10-20.7-20.8-20.7-38.6c0-14.7,5.1-26.6,15.4-35.6
		c10.3-9.1,23.6-13.6,39.9-13.6c16.8,0,32.1,4.5,45.9,13.4l-7,15.6c-11.8-5-23.4-7.5-34.9-7.5c-9.3,0-16.5,2.2-21.5,6.7
		c-5,4.5-8.1,10.2-8.1,17.2c0,10.7,7.7,20,21.8,27.9c12.9,7,38.9,21.8,38.9,21.8C453.3,540.9,460.4,551.6,460.4,569.2"/>
	<path class="st1" d="M767.7,377.5c-17.5-0.4-31.1,1.3-42.5,6.1c-3.3,1.3-8.5,1.3-9,5.5c1.8,1.8,2,4.6,3.5,7
		c2.6,4.4,7.2,10.3,11.4,13.3c4.6,3.5,9.2,7,14,10.1c8.5,5.3,18.2,8.3,26.5,13.6c4.8,3.1,9.6,7,14.5,10.3c2.4,1.8,3.9,4.6,7,5.7
		v-0.7c-1.5-2-2-4.8-3.5-7l-6.6-6.3c-6.4-8.5-14.3-16-22.8-22.1c-7-4.8-22.3-11.4-25.2-19.5l-0.4-0.4c4.8-0.5,10.5-2.2,15.1-3.5
		c7.5-2,14.2-1.5,21.9-3.5c3.5-0.9,7-2,10.5-3.1v-2c-4-3.9-6.8-9.2-11-12.9c-11.2-9.6-23.4-19.1-36.1-26.9
		c-6.8-4.4-15.5-7.2-22.8-11c-2.6-1.3-7-2-8.5-4.2c-3.9-4.8-6.1-11.2-9-16.9c-6.3-12-12.5-25.4-17.9-38.1c-4-8.5-6.4-17.1-11.2-25
		c-22.6-37.2-47.1-59.8-84.8-81.9c-8.1-4.6-17.7-6.6-28-9l-16.4-0.9c-3.5-1.5-7-5.7-10.1-7.7c-12.5-7.9-44.7-25-53.9-2.4
		c-5.9,14.3,8.8,28.3,13.8,35.5c3.7,5,8.5,10.7,11.2,16.4c1.5,3.7,2,7.7,3.5,11.6c3.5,9.6,6.8,20.4,11.4,29.4
		c2.4,4.6,5,9.4,8.1,13.6c1.8,2.4,4.8,3.5,5.5,7.5c-3.1,4.4-3.3,10.9-5,16.4c-7.9,24.7-4.8,55.4,6.4,73.6c3.5,5.5,11.8,17.5,23,12.9
		c9.9-3.9,7.7-16.4,10.5-27.4c0.7-2.6,0.2-4.4,1.5-6.1v0.4c3.1,6.1,6.1,12,9,18.2c6.8,10.7,18.6,21.9,28.5,29.3
		c5.2,4,9.4,10.7,16,13.2V388h-0.4c-1.3-2-3.3-2.8-5-4.4c-4-3.9-8.3-8.8-11.4-13.1c-9.2-12.3-17.3-25.9-24.5-39.9
		c-3.5-6.8-6.6-14.2-9.4-21c-1.3-2.6-1.3-6.6-3.5-7.9c-3.3,4.8-8.1,9-10.5,14.9c-4.2,9.4-4.6,21-6.2,33.1l-0.9,0.4
		c-7-1.8-9.4-9-12.1-15.1c-6.6-15.6-7.7-40.5-2-58.5c1.5-4.6,8.1-19,5.5-23.4c-1.3-4.2-5.7-6.6-8.1-9.9c-2.8-4.2-5.9-9.4-7.9-14
		c-5.3-12.3-7.9-25.8-13.6-38.1c-2.6-5.7-7.2-11.6-11-16.9c-4.2-5.9-8.8-10.1-12.1-17.1c-1.1-2.4-2.6-6.3-0.9-9
		c0.4-1.8,1.3-2.4,3.1-2.9c2.8-2.4,10.9,0.7,13.8,2c8.1,3.3,14.9,6.3,21.7,10.9c3.1,2.2,6.4,6.4,10.3,7.5h4.6
		c7,1.5,14.9,0.4,21.5,2.4c11.6,3.7,22.1,9.2,31.5,15.1c28.7,18.2,52.3,44,68.3,74.9c2.6,5,3.7,9.6,6.1,14.9
		c4.6,10.7,10.3,21.7,14.9,32.2c4.6,10.3,9,20.8,15.6,29.3c3.3,4.6,16.4,7,22.3,9.4c4.4,2,11.2,3.7,15.1,6.1
		c7.5,4.6,14.9,9.9,21.9,14.9C756.1,367.6,767.1,373.1,767.7,377.5 M544.3,187.2c-3,0-6,0.3-9,1.1v0.4h0.4c1.8,3.5,4.8,5.9,7,9
		c1.8,3.5,3.3,7,5,10.5l0.4-0.4c3.1-2.2,4.6-5.7,4.6-11c-1.3-1.5-1.5-3.1-2.6-4.6C548.9,190,546.1,188.9,544.3,187.2"/>
	<path class="st2" d="M788.6,619.4h4.5v-22.2h-6.8l-5.6,15.2l-6-15.2h-6.6v22.2h4.3v-16.9h0.2l6.3,16.9h3.3l6.3-16.9L788.6,619.4
		L788.6,619.4z M752,619.4h4.8V601h6.3v-3.8h-17.6v3.8h6.5L752,619.4L752,619.4z"/>
</g>
</svg>
