<!-- Generated by IcoMoon.io -->
<svg version="1.1" xmlns="http://www.w3.org/2000/svg" width="512" height="512" viewBox="0 0 512 512">
<title></title>
<g id="icomoon-ignore">
</g>
<path fill="#007acc" d="M0 0v512h512v-512zM292.608 277.76h-66.56v189.44h-47.231v-189.44h-66.56v-20.863l0.383 0.127v-20.992l89.6-0.383c49.281 0 89.856 0.127 89.856 0.512 0.512 0.256 0.512 9.599 0.512 21.119zM465.92 428.288c-8.192 21.377-28.16 35.84-56.703 40.577-8.96 1.536-29.44 1.28-39.041-0.385-20.48-3.84-40.063-14.080-52.095-27.263-4.737-5.12-13.824-18.817-13.312-19.712l4.864-3.072 19.2-11.137 14.463-8.448 3.328 4.481c4.225 6.656 13.697 15.616 19.2 18.688 16.64 8.575 38.912 7.424 49.92-2.56 4.737-4.352 6.785-8.96 6.785-15.36 0-5.888-0.897-8.577-3.84-13.056-4.096-5.632-12.288-10.24-35.328-20.48-26.497-11.264-37.761-18.432-48.257-29.44-6.015-6.656-11.52-17.025-14.080-25.6-1.919-7.424-2.56-25.6-0.768-32.897 5.505-25.6 24.832-43.52 52.48-48.64 8.96-1.792 30.081-1.024 38.912 1.28l-0.256 0.256c13.056 3.072 23.040 8.96 32 18.305 4.737 5.12 11.776 14.080 12.288 16.384 0 0.768-22.143 15.743-35.584 24.064-0.512 0.383-2.56-1.792-4.608-5.12-6.656-9.472-13.439-13.568-24.064-14.336-15.36-1.024-25.6 7.039-25.6 20.48 0 4.096 0.768 6.4 2.304 9.728 3.457 7.039 9.857 11.264 29.696 19.968 36.608 15.743 52.48 26.112 62.081 40.96 10.879 16.64 13.312 42.752 6.015 62.335z"></path>
</svg>
